<?xml version="1.0" encoding="UTF-8" standalone="no"?>
<!-- Created with Inkscape (http://www.inkscape.org/) -->

<svg
   xmlns:dc="http://purl.org/dc/elements/1.1/"
   xmlns:cc="http://creativecommons.org/ns#"
   xmlns:rdf="http://www.w3.org/1999/02/22-rdf-syntax-ns#"
   xmlns:svg="http://www.w3.org/2000/svg"
   xmlns="http://www.w3.org/2000/svg"
   xmlns:sodipodi="http://sodipodi.sourceforge.net/DTD/sodipodi-0.dtd"
   xmlns:inkscape="http://www.inkscape.org/namespaces/inkscape"
   version="1.1"
   id="svg2"
   width="360"
   height="360"
   viewBox="0 0 360 360"
   sodipodi:docname="FotoPerfilFB_.svg"
   inkscape:version="0.92.2 (unknown)"
   inkscape:export-filename="/media/keik/Datos/MAS DIVERSION/Mozilla Firefox/MozVR/FotoPerfilFB_.png"
   inkscape:export-xdpi="100"
   inkscape:export-ydpi="100">
  <title
     id="title915">PerfilFacebook_MozVR</title>
  <metadata
     id="metadata8">
    <rdf:RDF>
      <cc:Work
         rdf:about="">
        <dc:format>image/svg+xml</dc:format>
        <dc:type
           rdf:resource="http://purl.org/dc/dcmitype/StillImage" />
        <dc:title>PerfilFacebook_MozVR</dc:title>
        <cc:license
           rdf:resource="http://creativecommons.org/licenses/by-sa/4.0/" />
        <dc:creator>
          <cc:Agent>
            <dc:title>Karla L Hdz</dc:title>
          </cc:Agent>
        </dc:creator>
        <dc:rights>
          <cc:Agent>
            <dc:title>Fundación Mozilla</dc:title>
          </cc:Agent>
        </dc:rights>
        <dc:description>Realizado para foto de perfil en facebook por Karla Hernandez de Mozilla El Salvador desde el equipo creativo de Mozilla Hispano.</dc:description>
        <dc:date>2017</dc:date>
      </cc:Work>
      <cc:License
         rdf:about="http://creativecommons.org/licenses/by-sa/4.0/">
        <cc:permits
           rdf:resource="http://creativecommons.org/ns#Reproduction" />
        <cc:permits
           rdf:resource="http://creativecommons.org/ns#Distribution" />
        <cc:requires
           rdf:resource="http://creativecommons.org/ns#Notice" />
        <cc:requires
           rdf:resource="http://creativecommons.org/ns#Attribution" />
        <cc:permits
           rdf:resource="http://creativecommons.org/ns#DerivativeWorks" />
        <cc:requires
           rdf:resource="http://creativecommons.org/ns#ShareAlike" />
      </cc:License>
    </rdf:RDF>
  </metadata>
  <defs
     id="defs6">
    <linearGradient
       id="SVGID_33_"
       gradientUnits="userSpaceOnUse"
       x1="1150.4614"
       y1="938.66803"
       x2="1270.4927"
       y2="938.66803">
      <stop
         offset="0"
         style="stop-color:#F7EC30"
         id="stop354" />
      <stop
         offset="1"
         style="stop-color:#FAAE40"
         id="stop356" />
    </linearGradient>
    <linearGradient
       id="SVGID_34_"
       gradientUnits="userSpaceOnUse"
       x1="1150.4614"
       y1="898.42291"
       x2="1270.4927"
       y2="898.42291">
      <stop
         offset="0"
         style="stop-color:#F7EC30"
         id="stop363" />
      <stop
         offset="1"
         style="stop-color:#FAAE40"
         id="stop365" />
    </linearGradient>
    <linearGradient
       id="SVGID_1_"
       gradientUnits="userSpaceOnUse"
       x1="1174.9943"
       y1="951.26947"
       x2="24.0058"
       y2="-49.269501">
      <stop
         offset="0.1084"
         style="stop-color:#3494E6"
         id="stop6" />
      <stop
         offset="0.9113"
         style="stop-color:#EC6EAD"
         id="stop8" />
    </linearGradient>
    <linearGradient
       gradientTransform="matrix(0.33542124,0,0,0.42359768,-21.08504,-58.082544)"
       y2="-49.269501"
       x2="24.0058"
       y1="951.26947"
       x1="1174.9943"
       gradientUnits="userSpaceOnUse"
       id="SVGID_1_-3">
      <stop
         id="stop6-6"
         style="stop-color:#3494E6"
         offset="0.1084" />
      <stop
         id="stop8-7"
         style="stop-color:#EC6EAD"
         offset="0.9113" />
    </linearGradient>
  </defs>
  <sodipodi:namedview
     pagecolor="#ffffff"
     bordercolor="#666666"
     borderopacity="1"
     objecttolerance="10"
     gridtolerance="10"
     guidetolerance="10"
     inkscape:pageopacity="0"
     inkscape:pageshadow="2"
     inkscape:window-width="1366"
     inkscape:window-height="708"
     id="namedview4"
     showgrid="false"
     borderlayer="true"
     inkscape:showpageshadow="false"
     inkscape:zoom="1.0154839"
     inkscape:cx="-199.1296"
     inkscape:cy="172.12198"
     inkscape:window-x="0"
     inkscape:window-y="0"
     inkscape:window-maximized="1"
     inkscape:current-layer="layer1" />
  <g
     inkscape:groupmode="layer"
     id="layer1"
     inkscape:label="fondo"
     style="display:inline"
     transform="translate(0,47.040009)"
     sodipodi:insensitive="true">
    <rect
       style="opacity:1;fill:url(#SVGID_1_-3);stroke-width:0.37693989"
       id="rect11"
       height="389.70984"
       width="409.54935"
       y="-61.894928"
       x="-24.774673" />
  </g>
  <g
     inkscape:groupmode="layer"
     id="layer2"
     inkscape:label="icon_logo"
     transform="translate(0,47.040009)"
     sodipodi:insensitive="true">
    <g
       id="g890"
       transform="matrix(1.1346066,0,0,1.1346066,-26.204328,14.081853)"
       style="opacity:1">
      <g
         transform="matrix(1.196702,0,0,1.196702,75.832688,190.6824)"
         id="g8"
         style="fill:none;fill-rule:evenodd">
        <path
           id="path4-5"
           d="M 0,0 H 119 V 38.443 H 0 M 123,0 h 54 v 38.443 h -54"
           inkscape:connector-curvature="0"
           style="fill:#000000" />
        <path
           id="path6"
           d="m 109.188,25.392 0.063,2.122 c -0.75,0.406 -1.658,0.655 -2.534,0.655 -1.91,0 -2.91,-1.062 -3.13,-2.778 -0.78,1.404 -2.22,2.777 -4.505,2.777 -2.033,0 -4.317,-1.062 -4.317,-4.026 0,-3.432 3.285,-4.243 6.57,-4.243 0.752,0 1.565,0 2.254,0.126 v -0.468 c 0,-1.466 0,-3.15 -2.253,-3.15 -0.876,0 -1.533,0.03 -2.19,0.404 l -0.47,1.592 -3.192,-0.375 0.532,-3.246 c 2.44,-0.967 3.755,-1.28 6.07,-1.28 2.974,0 5.602,1.592 5.602,4.806 v 6.084 c 0,0.842 0.313,1.092 0.97,1.092 0.125,0 0.344,0 0.532,-0.094 z m -8.636,-0.062 c 1.44,0 2.94,-1.092 3.035,-3.4 -0.657,-0.094 -1.346,-0.188 -2.003,-0.188 -1.44,0 -2.722,0.374 -2.722,1.966 0,0.873 0.5,1.622 1.69,1.622 z M 91.132,6.392 h 3.975 l -6.102,21.465 h -3.943 z m -8.166,0 H 86.94 L 80.838,27.857 H 76.864 Z M 70.01,18.84 h 4.194 V 13.786 H 70.01 Z m 0,9.017 h 4.194 V 22.803 H 70.01 Z m -6.82,-3.026 h -4.57 l 7.824,-8.954 -0.313,-2.09 H 53.71 l -0.502,4.93 2.973,0.312 0.626,-2.216 h 4.38 l -7.76,8.924 0.408,2.12 h 12.36 l 0.845,-4.928 -3.193,-0.28 -0.657,2.183 z M 43.633,13.506 c 5.07,0 7.572,3.4 7.572,7.363 0,4.462 -3.285,7.3 -7.79,7.3 -4.382,0 -7.355,-2.62 -7.355,-7.144 0,-4.118 2.504,-7.52 7.573,-7.52 z m -0.125,11.575 c 2.128,0 3.504,-1.684 3.504,-4.368 0,-2.808 -1.533,-4.118 -3.442,-4.118 -2.065,0 -3.38,1.56 -3.38,4.18 0,2.403 1.16,4.306 3.318,4.306 z M 32.43,18.404 c 0,-3.37 -2.346,-4.9 -4.818,-4.9 -2.253,0 -3.88,1.187 -4.63,3.06 -0.658,-2.092 -2.536,-3.06 -4.6,-3.06 -1.972,0 -3.443,0.937 -4.288,2.404 V 13.786 H 8.18 v 3.058 h 1.877 v 7.987 H 8.18 v 3.027 h 8.574 V 24.83 h -2.66 V 19.9 c 0,-1.964 0.814,-3.337 2.722,-3.337 1.565,0 2.41,0.967 2.41,3.4 v 7.894 H 25.14 V 24.83 H 23.262 V 19.9 c 0,-1.964 0.783,-3.337 2.69,-3.337 1.66,0 2.473,0.967 2.473,3.4 v 7.894 h 5.914 V 24.83 h -1.91 V 18.404 Z M 150.066,11.076 V 8.9 h -7.752 v 2.176 h 3.128 l -6.188,16.252 h -0.17 L 132.76,11.076 h 3.094 V 8.9 h -7.99 v 2.176 h 2.176 L 138.03,31 h 1.972 l 7.99,-19.924 z M 170.67,31 h -4.42 l -4.76,-9.248 h -4.726 v 7.072 h 2.958 V 31 h -8.262 v -2.176 h 2.788 V 11.076 H 151.46 V 8.9 h 9.554 c 5.474,0 7.65,2.686 7.65,6.256 0,2.856 -1.598,5.304 -4.726,6.12 l 3.944,7.548 h 2.788 V 31 Z m -4.624,-15.742 c 0,-2.89 -1.564,-4.182 -5.338,-4.182 h -3.944 v 8.602 h 4.012 c 3.774,0 5.27,-1.666 5.27,-4.42 z"
           inkscape:connector-curvature="0"
           style="fill:#ffffff" />
      </g>
      <g
         transform="matrix(2.8886622,0,0,2.8886622,76.304649,-27.137688)"
         id="g825">
        <path
           style="fill:#ffffff;fill-rule:evenodd"
           inkscape:connector-curvature="0"
           id="path4"
           d="M 0,0 H 73 V 73 H 0 Z" />
        <path
           style="fill:#000000;fill-rule:evenodd"
           inkscape:connector-curvature="0"
           id="path6-3"
           d="m 48.602,45.844 c 3.34,0.578 6.648,1.405 9.897,2.478 -2.81,2.23 -6.273,3.502 -9.898,3.618 v -6.096 z m -11.816,-2.88 c -3.333,0 -6.642,0.232 -9.916,0.692 V 28.904 l -1.408,-0.21 c -3.57,-0.535 -7.01,-1.658 -10.196,-3.297 6.945,-2.344 14.175,-3.534 21.52,-3.534 7.344,0 14.575,1.19 21.52,3.534 -3.186,1.64 -6.628,2.762 -10.197,3.296 l -1.41,0.21 v 14.753 c -3.273,-0.46 -6.582,-0.692 -9.914,-0.692 z M 24.97,51.94 c -3.627,-0.116 -7.088,-1.387 -9.898,-3.618 3.25,-1.073 6.557,-1.9 9.897,-2.478 v 6.096 z m 0,-7.99 c -3.405,0.574 -6.767,1.392 -10.07,2.46 V 27.32 c 3.163,1.567 6.537,2.633 10.07,3.183 z m 23.632,0 V 30.504 c 3.532,-0.55 6.906,-1.616 10.068,-3.182 v 19.09 C 55.368,45.344 52.006,44.526 48.602,43.952 Z M 60.48,24.18 C 52.827,21.393 44.806,20 36.786,20 c -8.02,0 -16.042,1.393 -23.695,4.178 l -0.09,-0.053 v 24.913 h 0.004 c 3.414,3.07 7.88,4.774 12.515,4.774 h 1.35 v -8.266 c 3.288,-0.475 6.602,-0.717 9.916,-0.717 3.313,0 6.627,0.242 9.915,0.717 v 8.267 h 1.352 c 4.635,0 9.1,-1.703 12.515,-4.774 h 0.004 v -24.91 l -0.09,0.053 z" />
      </g>
    </g>
  </g>
</svg>
